<svg width="88" height="88" viewBox="0 0 88 88" fill="none" xmlns="http://www.w3.org/2000/svg">
<g clip-path="url(#clip0_225_1942)">
<path d="M77.0003 22H49.1703L61.2337 9.93671L58.667 7.33337L44.0003 22L29.3337 7.33337L26.7303 9.93671L38.8303 22H11.0003C6.96699 22 3.66699 25.2634 3.66699 29.3334V73.3334C3.66699 77.3667 6.96699 80.6667 11.0003 80.6667H77.0003C81.0337 80.6667 84.3337 77.3667 84.3337 73.3334V29.3334C84.3337 25.2634 81.0337 22 77.0003 22ZM77.0003 73.3334H11.0003V29.3334H77.0003V73.3334Z" fill="#12CDD9"/>
<path fill-rule="evenodd" clip-rule="evenodd" d="M34 37C31.7909 37 30 38.7909 30 41V61C30 63.2091 31.7909 65 34 65H54C56.2091 65 58 63.2091 58 61V41C58 38.7909 56.2091 37 54 37H34ZM37.1437 54.9341C37.846 55.3097 38.63 55.4976 39.4957 55.4976C40.198 55.4976 40.8391 55.3751 41.4189 55.1301C42.0069 54.8851 42.501 54.5298 42.9012 54.0643L41.8722 53.0843C41.2515 53.7621 40.4879 54.1011 39.5814 54.1011C38.9934 54.1011 38.4667 53.9745 38.0012 53.7213C37.5357 53.46 37.1723 53.1006 36.9109 52.6433C36.6496 52.186 36.5189 51.6674 36.5189 51.0876C36.5189 50.5077 36.6496 49.9891 36.9109 49.5318C37.1723 49.0745 37.5357 48.7192 38.0012 48.4661C38.4667 48.2047 38.9934 48.0741 39.5814 48.0741C40.4879 48.0741 41.2515 48.4089 41.8722 49.0786L42.9012 48.1108C42.501 47.6453 42.011 47.2901 41.4312 47.0451C40.8514 46.8001 40.2103 46.6776 39.5079 46.6776C38.6423 46.6776 37.8583 46.8695 37.1559 47.2533C36.4618 47.629 35.9146 48.1516 35.5144 48.8213C35.1143 49.491 34.9142 50.2464 34.9142 51.0876C34.9142 51.9287 35.1102 52.6841 35.5022 53.3538C35.9024 54.0235 36.4495 54.5502 37.1437 54.9341ZM50.8408 55.3751H52.1516V46.8001H50.5713V52.6066L45.8428 46.8001H44.5321V55.3751H46.1123V49.5686L50.8408 55.3751Z" fill="#12CDD9"/>
</g>
<defs>
<clipPath id="clip0_225_1942">
<rect width="88" height="88" fill="white"/>
</clipPath>
</defs>
</svg>
